<?xml version="1.0" encoding="utf-8"?>
<!-- Generator: Adobe Illustrator 21.1.0, SVG Export Plug-In . SVG Version: 6.00 Build 0)  -->
<svg version="1.1" xmlns="http://www.w3.org/2000/svg" xmlns:xlink="http://www.w3.org/1999/xlink" x="0px" y="0px"
	 viewBox="0 0 48 48" style="enable-background:new 0 0 48 48;" xml:space="preserve">
<g id="Layer_1">
	<g>
		<g>
			<path d="M18.7,34.1l-1.6,1.6l0.2,0.2c0.9,0.9,0.9,2.4,0,3.3l-0.2,0.2l1.6,1.6l0.2-0.2c1.8-1.8,1.8-4.7,0-6.4L18.7,34.1z
				 M30.7,35.9l0.2-0.2l-1.6-1.6l-0.2,0.2c-1.8,1.8-1.8,4.7,0,6.4l0.2,0.2l1.6-1.6l-0.2-0.2C29.8,38.3,29.8,36.8,30.7,35.9z
				 M34.3,29.2l-0.2,0.2l1.6,1.6l0.2-0.2c0.9-0.9,2.4-0.9,3.3,0l0.2,0.2l1.6-1.6l-0.2-0.2C38.9,27.4,36,27.4,34.3,29.2z M8.9,30.8
				c0.9-0.9,2.4-0.9,3.3,0l0.2,0.2l1.6-1.6l-0.2-0.2c-1.8-1.8-4.7-1.8-6.4,0l-0.2,0.2l1.6,1.6L8.9,30.8z M41.9,38.3l-4.4-4.4
				l1.8-1.8l-1.6-1.6L36,32.3L27.6,24L43.2,8.4L44,4l-4.4,0.8L24,20.4L8.4,4.8L4,4l0.8,4.4L20.4,24L12,32.3l-1.8-1.8l-1.6,1.6
				l1.8,1.8l-4.4,4.4l-0.9-0.9c-1.5,1.5-1.5,4,0,5.5C5.9,43.6,6.9,44,7.9,44s2-0.4,2.8-1.1l-0.9-0.9l4.4-4.4l1.8,1.8l1.6-1.6
				L15.7,36l8.3-8.3l8.3,8.3l-1.8,1.8l1.6,1.6l1.8-1.8l4.4,4.4l-0.9,0.9c0.8,0.8,1.8,1.1,2.8,1.1c1,0,2-0.4,2.8-1.1
				c1.5-1.5,1.5-4,0-5.5L41.9,38.3z"/>
		</g>
	</g>
</g>
<g id="Layer_2">
</g>
</svg>
