<?xml version="1.0" encoding="utf-8"?>
<!-- Generator: Adobe Illustrator 21.1.0, SVG Export Plug-In . SVG Version: 6.00 Build 0)  -->
<svg version="1.1" id="Layer_1" xmlns="http://www.w3.org/2000/svg" xmlns:xlink="http://www.w3.org/1999/xlink" x="0px" y="0px"
	 viewBox="0 0 48 48" style="enable-background:new 0 0 48 48;" xml:space="preserve">
<g>
	<g>
		<path d="M45.4,7.9L43,8.5c-0.2,0.1-3.4,0.9-8.5,4.2c1.8-3.3,2.3-5.2,2.3-5.4l0.6-2.4L35,5.5c-0.4,0.1-8.6,2.3-20.8,14.1l-1.6-1.4
			l-0.9-0.8l-1,0.6c-0.3,0.2-2,1.4-1.8,3.1c0.1,1.2,0.8,1.9,1.9,2.9c0,0,0.1,0.1,0.1,0.1l-7.5,7.5c-1.4,1.4-1.4,3.7,0,5.1l2,2
			c0.7,0.7,1.6,1,2.5,1c1,0,1.9-0.4,2.5-1l0.1-0.1c0.2,0.4,0.4,0.8,0.7,1.1l2,2c0.7,0.7,1.6,1,2.5,1c1,0,1.9-0.4,2.5-1l7.5-7.5
			c0.8,0.8,1.6,1.4,2.4,1.7c0.4,0.2,0.8,0.2,1.2,0.2c1.5,0,2.4-1.2,2.7-2.2l0.2-0.7l-0.5-0.6l-1.4-1.6
			c11.9-12.2,14.1-20.5,14.1-20.8L45.4,7.9z M28.1,30.5L27.6,31l2.5,2.8c-0.1,0.2-0.4,0.2-0.7,0.1c-0.6-0.2-1.5-1.1-2.4-2.1
			l-0.8-0.8L17,40.2c-0.5,0.5-1.4,0.5-1.9,0l-2-2c-0.3-0.3-0.4-0.6-0.4-0.9c0-0.3,0.1-0.6,0.3-0.8l5.1-5.1c0.8,0.8,1.6,1.4,2.4,1.7
			c0.4,0.2,0.8,0.2,1.2,0.2c1.5,0,2.4-1.2,2.7-2.2l0.2-0.7l-0.5-0.6l-1.4-1.6c3.9-4,6.7-7.6,8.8-10.6c5-3.8,8.8-5.6,10.7-6.4
			C41,14.1,37.4,21.2,28.1,30.5z"/>
	</g>
</g>
</svg>
