<svg xmlns="http://www.w3.org/2000/svg" xmlns:xlink="http://www.w3.org/1999/xlink" version="1.1" x="0px" y="0px" viewBox="0 0 100 100" enable-background="new 0 0 100 100" xml:space="preserve"><path d="M94.199,23.213c0.469-0.469,0.732-1.105,0.732-1.768V7.302c0-1.381-1.119-2.5-2.5-2.5H78.289  c-0.664,0-1.299,0.263-1.768,0.732L50,32.055L23.479,5.534c-0.469-0.469-1.105-0.732-1.768-0.732H7.569c-1.381,0-2.5,1.119-2.5,2.5  v14.142c0,0.664,0.263,1.299,0.732,1.768l26.521,26.521l-9.853,9.853l-1.768-1.768c-1.416-1.417-3.3-2.197-5.303-2.197  s-3.886,0.78-5.303,2.197c-1.417,1.417-2.197,3.3-2.197,5.303c0,2.003,0.78,3.886,2.197,5.303l5.304,5.303L7.266,81.86  c-2.924,2.924-2.924,7.682,0,10.607c1.462,1.461,3.382,2.192,5.303,2.192c1.921,0,3.842-0.731,5.303-2.193l8.132-8.133l5.304,5.304  c1.416,1.417,3.3,2.197,5.303,2.197s3.887-0.779,5.303-2.197c1.417-1.416,2.197-3.3,2.197-5.303s-0.78-3.886-2.197-5.303  l-1.768-1.768l9.853-9.853l9.854,9.854l-1.767,1.767c-1.417,1.416-2.197,3.3-2.197,5.303s0.78,3.886,2.197,5.303  c1.416,1.417,3.3,2.197,5.303,2.197c2.004,0,3.887-0.779,5.303-2.196l5.304-5.304l8.132,8.133c1.462,1.462,3.382,2.192,5.303,2.192  c1.92,0,3.841-0.731,5.303-2.192c1.417-1.416,2.197-3.3,2.197-5.303s-0.78-3.886-2.197-5.303l-8.133-8.133l5.304-5.304  c1.417-1.416,2.197-3.3,2.197-5.303c0-2.003-0.78-3.886-2.197-5.303c-1.417-1.417-3.3-2.197-5.303-2.197s-3.886,0.78-5.303,2.197  l-1.768,1.768l-9.852-9.853L94.199,23.213z M79.324,9.802H89.93v10.607L64.142,46.197L53.536,35.591L79.324,9.802z M14.337,88.93  c-0.975,0.976-2.562,0.975-3.536,0c-0.472-0.472-0.732-1.1-0.732-1.767c0-0.668,0.26-1.296,0.732-1.768l8.132-8.133l3.536,3.536  L14.337,88.93z M38.378,86.103c-0.944,0.944-2.592,0.944-3.536,0l-7.067-7.067c-0.002-0.002-0.003-0.004-0.004-0.005  s-0.004-0.003-0.005-0.004L13.629,64.89c-0.472-0.472-0.732-1.1-0.732-1.768c0-0.668,0.259-1.296,0.732-1.768  c0.473-0.472,1.101-0.732,1.768-0.732c0.668,0,1.296,0.259,1.769,0.732l17.677,17.677c0,0,0,0,0,0.001s0,0,0.001,0l3.534,3.535  c0.472,0.472,0.732,1.1,0.732,1.768C39.11,85.003,38.85,85.631,38.378,86.103z M36.612,73.729L26.004,63.121l9.853-9.853  l10.607,10.607L36.612,73.729z M89.199,85.396c0.975,0.975,0.974,2.562,0,3.536c-0.974,0.974-2.561,0.974-3.536,0l-8.132-8.133  l3.536-3.536L89.199,85.396z M84.603,60.622c0.667,0,1.295,0.258,1.767,0.731c0.472,0.473,0.732,1.101,0.732,1.768  c0,0.668-0.26,1.296-0.732,1.768L65.157,86.102c-0.944,0.944-2.592,0.944-3.536,0c-0.472-0.472-0.732-1.1-0.732-1.768  c0-0.668,0.26-1.296,0.732-1.768l21.214-21.212C83.307,60.882,83.935,60.622,84.603,60.622z M63.389,73.728l-53.32-53.32V9.801  h10.607l53.32,53.32L63.389,73.728z"></path></svg>