<?xml version="1.0" encoding="utf-8"?>
<!-- Generator: Adobe Illustrator 21.1.0, SVG Export Plug-In . SVG Version: 6.00 Build 0)  -->
<svg version="1.1" xmlns="http://www.w3.org/2000/svg" xmlns:xlink="http://www.w3.org/1999/xlink" x="0px" y="0px"
	 viewBox="0 0 48 48" style="enable-background:new 0 0 48 48;" xml:space="preserve">
<g id="Layer_1">
	<g>
		<g>
			<path d="M33.5,6.9C30.7,5,27.3,4,23.3,4c-3.1,0-5.8,0.7-7.9,2.1C11.9,8.3,10.2,11.8,10,17v1h9c0,0,0.2-2.1,0.3-2.6
				c0.4-2,2.2-3.5,4.4-3.5c1,0,1.9,0.3,2.6,0.8c0.1,0.1,0.2,0.2,0.3,0.2c0.9,0.8,1.6,2,1.6,3.3c0,2.1-2.3,3.8-2.4,3.9l-1.9,1.5
				c-2,1.6-3.2,2.9-3.7,4.2C19.7,27,19.1,29,19,32v1h9v-1c0-2.1,0.7-3.8,2.1-4.8l1.8-1.4c1.9-1.5,3.2-2.7,3.9-3.7
				c1.2-1.7,2.2-3.6,2.2-6.1C38,12.1,36.3,9,33.5,6.9z M19,44h9v-9h-9V44z"/>
		</g>
	</g>
</g>
<g id="Layer_2">
</g>
</svg>
