<?xml version="1.0" encoding="utf-8"?>
<!-- Generator: Adobe Illustrator 21.1.0, SVG Export Plug-In . SVG Version: 6.00 Build 0)  -->
<svg version="1.1" id="Layer_1" xmlns="http://www.w3.org/2000/svg" xmlns:xlink="http://www.w3.org/1999/xlink" x="0px" y="0px"
	 viewBox="0 0 48 48" style="enable-background:new 0 0 48 48;" xml:space="preserve">
<g>
	<g>
		<path d="M35.5,27.4c-1.4,0-1,3.7-1.1,5.5c-0.1,2.1-1.9,4-2.4,4.1c-1.4-3.1-4.4-5.2-8-5.2s-6.7,2.2-8,5.2c-0.5-0.2-2.3-2-2.4-4.1
			c-0.1-1.8,0.3-5.5-1.1-5.5c-1.5,0-0.4,8.2,0,9.9c0.3,0.9,0.6,4.3,2.2,5.5c1.1,0.8,2.3,1.3,5.5-1.1c1.2-0.9,2.7-1.2,3.8-1.2
			s2.6,0.3,3.8,1.2c3.2,2.4,4.4,1.9,5.5,1.1c1.6-1.2,1.9-4.5,2.2-5.5C36,35.7,37,27.4,35.5,27.4z M40,19.8v-5.5c0-1.2-1-2.1-1.9-2.7
			c-2.7-5-8-8.4-14.1-8.4S12.7,6.6,9.9,11.6C9,12.1,8,13,8,14.3v5.5C8,22,6.9,22,6.9,25.3c0,3.3,2.9,4.7,3.3,4.4
			c1.2-0.6-0.3-2-0.3-3.7c0-2.3,3.6-0.8,4.7,1.5c1.1,2.2,0.3,5.5,2.1,5.5c0.8,0,0.6-1,1.3-2.8c0.9-2.3,3.3-2.8,6-2.8s5.1,0.5,6,2.8
			c0.7,1.6,0.4,2.8,1.3,2.8c1.9,0,1-3.3,2.1-5.5c1.1-2.2,4.7-3.7,4.7-1.5c0,1.7-1.5,3-0.3,3.7c0.5,0.2,3.3-1.1,3.3-4.4
			C41.1,22,40,22,40,19.8z M20.2,14.6c-0.2,0.6-0.8,1.5-2,2c-0.8,0.4-1.7,0.6-3,1c-1.6,0.5-2.7,0.1-3-1c-0.1-0.5-0.2-1.5,0-2
			c0.3-0.7,1-2.1,3-3c1.4-0.7,3.3-0.9,4-1c0.9-0.2,1,0.5,1,1C20.2,12.1,20.4,13.9,20.2,14.6z M25.5,22c-0.6,0-1.1-0.9-1.5-0.9
			S23.1,22,22.5,22c-0.4,0-0.9-1-0.9-2.8c0-1.8,1.9-5.2,2.3-5.2s2.3,3.3,2.3,5.2C26.3,21,25.9,22,25.5,22z M35.9,16.6
			c-0.3,1.1-1.4,1.5-3,1c-1.3-0.4-2.2-0.6-3-1c-1.2-0.5-1.8-1.4-2-2c-0.2-0.7,0-2.5,0-3c0-0.5,0.1-1.2,1-1c0.7,0.1,2.6,0.3,4,1
			c2,0.9,2.7,2.3,3,3C36.1,15.1,36,16.1,35.9,16.6z"/>
	</g>
</g>
</svg>
