<?xml version="1.0" encoding="utf-8"?>
<!-- Generator: Adobe Illustrator 21.1.0, SVG Export Plug-In . SVG Version: 6.00 Build 0)  -->
<svg version="1.1" xmlns="http://www.w3.org/2000/svg" xmlns:xlink="http://www.w3.org/1999/xlink" x="0px" y="0px"
	 viewBox="0 0 48 48" style="enable-background:new 0 0 48 48;" xml:space="preserve">
<g id="Layer_1">
	<g>
		<g>
			<path d="M8,30h3V11H8V30z M3,30h3V11H3V30z M31,20.5v-8.8L23.6,10L21,9.4c-2.2,0.8-4,1.6-4,1.6h-4v18.6c1.3-0.4,2.2-0.8,2.6-1
				c1.9-1.9,6.2-5.3,9.8-6.5C27.3,21.5,29.5,20.8,31,20.5z M44,25c0,0,1-1,1-3s-2-3-2-3s1-1,1-3s-2-3-2-3s0-2,0-3s-2-3-4-3
				c-1,0-8,0-11.4,0.7c-0.5,0.1-1.2,0.3-1.8,0.5L33,10v12c0,0-4,1-7,2s-7,4-9,6c0,0,6,3,9,5s3,8,5,8c1,0,2.3-0.3,3-1
				c1-1,2.3-3,2.3-5.2c0-2.2-2.3-4.8-2.3-4.8h9c0,0,3-1,3-4C46,26,44,25,44,25z"/>
		</g>
	</g>
</g>
<g id="Layer_2">
</g>
</svg>
